<svg id="Layer_1" data-name="Layer 1" xmlns="http://www.w3.org/2000/svg" viewBox="0 0 395.03 153.16"><defs><style>.cls-1{fill:#2f353d;}.cls-2{fill:#e52530;}</style></defs><title>logo_web(1)</title><polygon class="cls-1" points="48.55 0 115.93 153.16 164.71 153.16 97.36 0 48.55 0"/><polygon class="cls-2" points="143.72 0 211.1 153.16 259.87 153.16 192.52 0 143.72 0"/><polygon class="cls-1" points="82.47 76.58 48.77 153.16 0 153.16 33.67 76.58 82.47 76.58"/><polygon class="cls-1" points="237.81 13.99 233.57 29 240.52 29 244.76 13.99 237.81 13.99"/><path class="cls-1" d="M471.19,251.26H466v-7.42h-6.69v27.68h11.91a4.46,4.46,0,0,0,4.73-4.69V255.95A4.46,4.46,0,0,0,471.19,251.26Zm-2,15H466V256.5h3.27Z" transform="translate(-201.35 -242.51)"/><path class="cls-1" d="M490,251.26H479.67V256H488v2.91h-4.86a4.46,4.46,0,0,0-4.77,4.65v3.29a4.48,4.48,0,0,0,4.77,4.69h11.55V255.95A4.46,4.46,0,0,0,490,251.26Zm-2,15.53h-2.91V263H488Z" transform="translate(-201.35 -242.51)"/><path class="cls-1" d="M519.16,251.26H497.7v20.25h6.69v-15h3.11v15h6.65v-15h3.11v15h6.69V255.95A4.48,4.48,0,0,0,519.16,251.26Z" transform="translate(-201.35 -242.51)"/><path class="cls-1" d="M538.12,251.26H531.3a4.46,4.46,0,0,0-4.73,4.69v10.88a4.46,4.46,0,0,0,4.73,4.69h11.23v-4.72h-9.27v-3.67h9.63v-7.18A4.48,4.48,0,0,0,538.12,251.26Zm-2,8.47h-2.91V256h2.91Z" transform="translate(-201.35 -242.51)"/><path class="cls-1" d="M552.29,246.64H545.6v20.18a4.46,4.46,0,0,0,4.73,4.69h5.09v-4.88h-3.13V256.5h3.13v-5.24h-3.13Z" transform="translate(-201.35 -242.51)"/><path class="cls-2" d="M567,254.62v16.89h6.69v-15h3.93v-5.24h-7.26A3.15,3.15,0,0,0,567,254.62Z" transform="translate(-201.35 -242.51)"/><path class="cls-2" d="M586.38,251.26h-6.65v15.57c0,1.75.61,4.69,4.73,4.69h11.91V251.26h-6.69v15h-3.31Z" transform="translate(-201.35 -242.51)"/><rect class="cls-2" x="357.46" y="24.16" width="4.84" height="4.84"/><polygon class="cls-1" points="247.77 0 240.81 0 249 29 255.95 29 247.77 0"/><rect class="cls-1" x="239.16" y="20.97" width="10.72" height="5.12"/></svg>