<svg id="Слой_1" data-name="Слой 1" xmlns="http://www.w3.org/2000/svg" xmlns:xlink="http://www.w3.org/1999/xlink" viewBox="0 0 414.23 108.91"><defs><style>.cls-1{fill:none;}.cls-2,.cls-5{fill:#2f353d;}.cls-3{fill:#e52530;}.cls-4{clip-path:url(#clip-path);}.cls-5{font-size:22.7px;font-family:EditorialGrotesk-Bold, Editorial Grotesk ;font-weight:700;}</style><clipPath id="clip-path" transform="translate(-193 -162.09)"><rect class="cls-1" x="193" y="162.09" width="414.23" height="108.91"/></clipPath></defs><title>abamet-30</title><polygon class="cls-2" points="10.84 35.79 0 74.18 17.78 74.18 28.62 35.79 10.84 35.79 10.84 35.79"/><path class="cls-2" d="M280.78,222.86h-8.36v-25h8.36v25Zm5-38.4H272.42v-19h-17.1v70.79h30.47c7.23,0,12.09-4.82,12.09-12V196.46c0-7.18-4.86-12-12.09-12Z" transform="translate(-193 -162.09)"/><path class="cls-2" d="M328.84,224.19H321.4V214.6h7.43v9.59Zm5-39.73H307.48v12.07h21.35V204H316.39c-7.29,0-12.2,4.78-12.2,11.89v8.42c0,7.17,4.9,12,12.2,12h29.55V196.46c0-7.18-4.86-12-12.09-12Z" transform="translate(-193 -162.09)"/><path class="cls-2" d="M408.49,184.46h-54.9v51.8h17.1v-38.4h7.95v38.4h17v-38.4h7.95v38.4h17.1V196.46c0-7.18-4.9-12-12.2-12Z" transform="translate(-193 -162.09)"/><path class="cls-2" d="M452,206.13h-7.43v-9.59H452v9.59Zm5-21.66H439.54c-7.23,0-12.09,4.82-12.09,12v27.82c0,7.17,4.86,12,12.09,12h28.73V224.19H444.55v-9.38h24.64V196.46c0-7.18-4.9-12-12.2-12Z" transform="translate(-193 -162.09)"/><path class="cls-2" d="M493.23,172.66h-17.1v51.62c0,7.17,4.86,12,12.09,12h13V223.78h-8V197.87h8V184.46h-8V172.66Z" transform="translate(-193 -162.09)"/><path class="cls-3" d="M531,193.07v43.2h17.1v-38.4h10.06V184.46H539.57c-5.22,0-8.6,3.38-8.6,8.6Z" transform="translate(-193 -162.09)"/><path class="cls-3" d="M580.43,184.46h-17v39.81c0,4.48,1.57,12,12.09,12H606v-51.8h-17.1v38.4h-8.46v-38.4Z" transform="translate(-193 -162.09)"/><g class="cls-4"><polygon class="cls-3" points="316.91 74.18 329.3 74.18 329.3 61.79 316.91 61.79 316.91 74.18 316.91 74.18"/><polygon class="cls-2" points="36.31 0 18.53 0 39.47 74.18 57.25 74.18 36.31 0 36.31 0"/></g><polygon class="cls-2" points="41.71 66.75 14.29 66.75 14.29 53.65 41.71 53.65 41.71 66.75 41.71 66.75"/><text class="cls-5" transform="translate(317.05 100.35)">E</text><text class="cls-5" transform="translate(331.74 100.35)">st. 1990</text></svg>